<svg width="360" height="35" viewBox="0 0 360 35" fill="none" xmlns="http://www.w3.org/2000/svg">
<path fill-rule="evenodd" clip-rule="evenodd" d="M249.161 0.000780106L272.369 0.00252581V2.8726L275.227 2.87143V5.77601L278.176 5.77849V29.0299H275.228V31.9582H272.37V34.8283L249.161 34.8263L249.16 31.9587L246.168 31.9582L246.166 29.0299L243.259 29.0274L243.262 5.78356L246.164 5.77849L246.169 2.87538L249.156 2.87226L249.161 0.000780106ZM269.258 8.83139H252.272L252.268 25.978L269.255 25.9768L269.258 8.83139ZM264.664 3.09857C259.527 3.07259 254.34 3.04636 249.327 3.13151C249.159 3.68642 249.186 4.76023 249.205 5.53528C249.209 5.68787 249.212 5.82914 249.214 5.95232H246.447V28.8172H249.212L249.226 31.7868L272.165 31.7882L272.167 28.8172L275.145 28.8147L275.142 5.95232H272.169L272.167 3.12344C269.696 3.12402 267.186 3.11132 264.664 3.09857ZM252.029 5.77849H269.434L269.436 8.70421L272.37 8.70401V26.0712L269.434 26.0705V28.9699C268.643 29.0858 266.343 29.0649 264.812 29.0511C264.41 29.0474 264.06 29.0443 263.805 29.0442L252.031 29.03L252.029 26.0739L249.161 26.072V8.70294L252.026 8.70162L252.029 5.77849Z" fill="black"/>
<path fill-rule="evenodd" clip-rule="evenodd" d="M269.258 8.83139H252.272L252.268 25.978L269.255 25.9768L269.258 8.83139ZM252.029 5.77849H269.434L269.436 8.70421L272.37 8.70401V26.0712L269.434 26.0705V28.9699C268.643 29.0858 266.343 29.0649 264.812 29.0511C264.41 29.0474 264.06 29.0443 263.805 29.0442L252.031 29.03L252.029 26.0739L249.161 26.072V8.70294L252.026 8.70162L252.029 5.77849Z" fill="white"/>
<path fill-rule="evenodd" clip-rule="evenodd" d="M269.434 5.77849H252.029L252.026 8.70162L249.161 8.70294V26.072L252.029 26.0739L252.031 29.03L263.805 29.0442C264.06 29.0443 264.41 29.0474 264.812 29.0511C266.343 29.0649 268.643 29.0858 269.434 28.9699V26.0705L272.37 26.0712V8.70401L269.436 8.70421L269.434 5.77849ZM252.272 8.83139H269.258L269.255 25.9768L252.268 25.978L252.272 8.83139Z" fill="black"/>
<path d="M81.0819 0.00103331L110.143 0.00252506L110.143 2.87261L113.012 2.87167L113.011 5.77556L115.927 5.77849L115.927 17.4373L113.011 17.4414L113.013 20.2764H110.144V23.2275L89.8395 23.2246V34.8268L86.9452 34.8254L86.9448 20.1016H109.859V17.2254L112.919 17.2227L112.916 5.95978L109.867 5.94823L109.859 3.12345L84.0627 3.12276L84.0625 34.8254L81.0405 34.8312L81.0361 12.5039C81.0358 8.47032 80.9441 4.00725 81.0819 0.00103331Z" fill="black"/>
<path d="M170.862 5.77849H197.058L197.056 8.74623L170.932 8.74955L170.923 11.4661L191.291 11.4697V14.5328L194.217 14.5352V17.4137L197.058 17.4146L197.06 29.0454L194.12 29.0518L194.122 31.9582L191.279 31.9592L191.281 34.8278L162.205 34.8263L162.204 31.8956L191.118 31.8992V28.9447L194.086 28.9442V17.4382L191.22 17.4388V14.5909L168.006 14.5921L168.003 8.70665L170.859 8.70386L170.862 5.77849Z" fill="black"/>
<path d="M121.642 0.000253677L156.534 0.00338979V2.90026L124.591 2.90167L124.589 31.8982L156.534 31.8992V34.8271L121.633 34.8268L121.642 0.000253677Z" fill="black"/>
<path d="M283.86 0.0153064L286.894 0.00281365V28.9381L289.711 28.9454L289.718 31.8973H312.857L312.871 28.9454L315.724 28.941V0.00479683L318.746 0.00272894V29.0294L315.968 29.03V31.9538L313.067 31.9582V34.8266L289.638 34.8268V31.9582H286.753V29.03L283.839 29.0257L283.86 0.0153064Z" fill="black"/>
<path d="M208.513 0.00227118L237.604 0.00272898V2.9008L208.656 2.90138L208.654 5.8099L205.683 5.80868V28.9418L208.654 28.9447L208.656 31.8987L237.604 31.8997V34.8276L208.588 34.8268L208.59 31.959L205.62 31.9512L205.615 29.0288L202.73 29.0282L202.728 5.77903L205.613 5.77849V2.87189L208.493 2.87279L208.513 0.00227118Z" fill="black"/>
<path fill-rule="evenodd" clip-rule="evenodd" d="M107.217 5.77847H86.9442L86.9474 17.4382L107.216 17.4405L107.215 14.5921L110.144 14.5913L110.144 8.70663L107.218 8.70594L107.217 5.77847ZM89.9902 8.83141H106.959L106.96 14.3128L89.9907 14.3126L89.9902 8.83141Z" fill="black"/>
<path d="M211.386 5.77849H237.604L237.603 8.7462L211.507 8.74901L211.502 26.0281H237.603L237.604 29.0289L211.388 29.0294L211.386 26.0703L208.586 26.0702C208.762 20.6471 208.593 14.2107 208.593 8.70365L211.386 8.70655V5.77849Z" fill="black"/>
<path d="M289.687 0L292.586 0.00272906V26.0268L310.023 26.0275L310.025 0.00235629L313.006 0.00232234L313.003 26.071L310.181 26.0698L310.176 29.0198C304.589 29.1827 298.198 29.0281 292.547 29.0289L292.545 26.0724H289.687V0Z" fill="black"/>
<path d="M162.204 5.78017L165.101 5.79393C165.215 9.44101 165.113 13.7107 165.116 17.4058C172.606 17.5834 180.863 17.4126 188.413 17.4137L188.415 20.2374L191.281 20.2371V26.0717L188.415 26.0705L188.411 29.0294L162.204 29.0299L162.205 26.0322L188.244 26.028V20.2764L165.095 20.275L165.095 17.4436L162.205 17.4441L162.204 5.78017Z" fill="black"/>
<path d="M127.469 17.4137H144.872L144.871 20.2754L130.37 20.2764L130.369 26.0281H156.533L156.534 29.0294L127.469 29.0299V17.4137Z" fill="black"/>
<path d="M127.469 5.77849H156.534L156.533 8.74664L130.371 8.75191L130.369 11.4673L144.872 11.4697L144.862 14.5913L127.469 14.5921L127.469 5.77849Z" fill="black"/>
<path d="M40.5219 0.00227118L43.4808 0.00254243L43.4745 11.4697L46.427 11.4742L46.4421 14.5336L57.9102 14.5352V34.8208L55.0036 34.8254L55.0034 17.4439L46.3852 17.4385L46.3828 14.5942L43.3969 14.5921L43.3966 11.6129L40.5087 11.6043L40.5219 0.00227118Z" fill="black"/>
<path d="M0 5.77849H17.3766V34.8269L14.4638 34.8254L14.4627 8.74949L0 8.74837V5.77849Z" fill="black"/>
<path d="M324.496 5.77849H341.897V34.8254L338.992 34.8268L338.989 8.74894L324.494 8.74811L324.496 5.77849Z" fill="black"/>
<path d="M72.3598 0.000780106L75.2935 0.00235657V11.6001L72.5255 11.6059L72.5261 14.5811L69.6132 14.5918L69.6133 17.441L63.7963 17.4414V34.828L60.7931 34.8254V14.5352L69.5592 14.5311L69.5626 11.4702L72.3597 11.4703L72.3598 0.000780106Z" fill="black"/>
<path d="M20.2545 5.77849H34.7532L34.752 8.74323L23.2214 8.74896L23.2097 34.8261L20.2543 34.8254L20.2545 5.77849Z" fill="black"/>
<path d="M344.777 5.77849H359.275L359.274 8.74627L347.718 8.74957L347.713 34.8302L344.779 34.8254L344.777 5.77849Z" fill="black"/>
<path d="M46.3851 0.00232172L49.2934 0.00401684L49.2927 8.70599L66.5091 8.70665L66.5108 0.00633885L69.6133 0.00254189L69.6142 8.74837H66.7261L66.7251 11.5986L49.2395 11.5994L49.2356 8.74837L46.3851 8.74813V0.00232172Z" fill="black"/>
<path d="M324.499 0.00261021L359.275 0.00286433L359.274 2.9008H324.494L324.499 0.00261021Z" fill="black"/>
<path d="M0 0.00318711L34.7528 0.00235653L34.7532 2.9008H0V0.00318711Z" fill="black"/>
<path d="M167.972 0.00272894L197.06 0.0027797L197.058 2.9008L168.076 2.90109L168.072 5.80966L165.101 5.79393L165.091 2.87236L167.972 2.87445V0.00272894Z" fill="black"/>
</svg>
